<svg width="824" height="828" viewBox="0 0 824 828" fill="none" xmlns="http://www.w3.org/2000/svg">
<path fill-rule="evenodd" clip-rule="evenodd" d="M722.107 177.058L684.627 213.24L625.171 271.279L509.415 304.096L411.45 308.432V342.097H545.918L674.203 308.432L704.578 281.503L744.81 228.739L824 134.443L722.107 177.058ZM411.45 291.444V0.000724792L568.185 0.000727402L627.133 169.727L680.94 202.063L620.399 259.111L510.132 291.444H411.45Z" fill="black"/>
<path fill-rule="evenodd" clip-rule="evenodd" d="M722.107 177.058L684.627 213.24L625.171 271.279L509.415 304.096L411.45 308.432V342.097H545.918L674.203 308.432L704.578 281.503L744.81 228.739L824 134.443L722.107 177.058ZM411.45 291.444V0.000724792L568.185 0.000727402L627.133 169.727L680.94 202.063L620.399 259.111L510.132 291.444H411.45Z" fill="black" fill-opacity="0.2"/>
<path fill-rule="evenodd" clip-rule="evenodd" d="M675.987 676.174L713.918 598.76L704.578 281.503L744.81 228.739L754.752 602.089L705.084 713.997L675.987 676.174ZM639.329 708.744L411.45 828H479.052L669.74 745.76L639.329 708.744Z" fill="black"/>
<path fill-rule="evenodd" clip-rule="evenodd" d="M675.987 676.174L713.918 598.76L704.578 281.503L744.81 228.739L754.752 602.089L705.084 713.997L675.987 676.174ZM639.329 708.744L411.45 828H479.052L669.74 745.76L639.329 708.744Z" fill="black" fill-opacity="0.2"/>
<path d="M545.918 342.097H411.45V708.744V828L639.329 708.744L565.371 604.538L503.038 616.972L424.069 523.74L468.999 419.196L623.445 405.704L675.936 470.57L633.995 576.252L675.987 676.174L713.918 598.76L704.578 281.503L674.203 308.432L545.918 342.097Z" fill="black"/>
<path d="M545.918 342.097H411.45V708.744V828L639.329 708.744L565.371 604.538L503.038 616.972L424.069 523.74L468.999 419.196L623.445 405.704L675.936 470.57L633.995 576.252L675.987 676.174L713.918 598.76L704.578 281.503L674.203 308.432L545.918 342.097Z" fill="#D4D4D4"/>
<path d="M625.171 271.279L684.627 213.24L680.94 202.063L620.399 259.111L510.132 291.444H411.45V308.432L509.415 304.096L625.171 271.279Z" fill="black"/>
<path d="M625.171 271.279L684.627 213.24L680.94 202.063L620.399 259.111L510.132 291.444H411.45V308.432L509.415 304.096L625.171 271.279Z" fill="black" fill-opacity="0.2"/>
<path d="M595.023 453.609L492.148 465.637L469.35 523.783L510.593 566.904L605.521 551.101L630.956 494.066L595.023 453.609Z" fill="black"/>
<path d="M595.023 453.609L492.148 465.637L469.35 523.783L510.593 566.904L605.521 551.101L630.956 494.066L595.023 453.609Z" fill="black" fill-opacity="0.2"/>
<path fill-rule="evenodd" clip-rule="evenodd" d="M623.445 405.704L468.999 419.196L424.069 523.74L503.038 616.972L565.371 604.538L625.4 592.104L633.995 576.252L675.936 470.57L623.445 405.704ZM492.148 465.637L595.023 453.609L630.956 494.066L605.521 551.101L510.593 566.904L469.35 523.783L492.148 465.637Z" fill="black" fill-opacity="0.2"/>
<path fill-rule="evenodd" clip-rule="evenodd" d="M623.445 405.704L468.999 419.196L424.069 523.74L503.038 616.972L565.371 604.538L625.4 592.104L633.995 576.252L675.936 470.57L623.445 405.704ZM492.148 465.637L595.023 453.609L630.956 494.066L605.521 551.101L510.593 566.904L469.35 523.783L492.148 465.637Z" fill="#22C55E"/>
<path d="M625.4 592.104L565.371 604.538L639.329 708.744L675.987 676.174L633.995 576.252L625.4 592.104Z" fill="black" fill-opacity="0.2"/>
<path d="M625.4 592.104L565.371 604.538L639.329 708.744L675.987 676.174L633.995 576.252L625.4 592.104Z" fill="#22C55E"/>
<path d="M714.809 763.748L752.32 763.278L705.084 713.997L669.74 745.76L714.809 763.748Z" fill="black" fill-opacity="0.2"/>
<path d="M714.809 763.748L752.32 763.278L705.084 713.997L669.74 745.76L714.809 763.748Z" fill="#22C55E"/>
<path d="M705.084 713.997L675.987 676.174L639.329 708.744L669.74 745.76L705.084 713.997Z" fill="black" fill-opacity="0.2"/>
<path d="M705.084 713.997L675.987 676.174L639.329 708.744L669.74 745.76L705.084 713.997Z" fill="#22C55E"/>
<path fill-rule="evenodd" clip-rule="evenodd" d="M101.893 177.057L139.373 213.239L198.829 271.279L314.585 304.096L412.55 308.431V342.096H280.385L152.1 308.431L121.725 281.503L79.19 228.739L0.000129916 134.443L101.893 177.057ZM412.55 281.503V0L255.815 2.60929e-06L196.867 169.726L143.06 202.063L203.601 259.111L313.868 291.444L412.55 281.503Z" fill="black"/>
<path fill-rule="evenodd" clip-rule="evenodd" d="M101.893 177.057L139.373 213.239L198.829 271.279L314.585 304.096L412.55 308.431V342.096H280.385L152.1 308.431L121.725 281.503L79.19 228.739L0.000129916 134.443L101.893 177.057ZM412.55 281.503V0L255.815 2.60929e-06L196.867 169.726L143.06 202.063L203.601 259.111L313.868 291.444L412.55 281.503Z" fill="black" fill-opacity="0.2"/>
<path fill-rule="evenodd" clip-rule="evenodd" d="M150.317 676.174L112.385 598.759L121.725 281.503L79.19 228.739L69.2479 602.089L118.916 713.997L150.317 676.174ZM186.975 708.743L412.55 827.999H344.948L154.26 745.76L186.975 708.743Z" fill="black"/>
<path fill-rule="evenodd" clip-rule="evenodd" d="M150.317 676.174L112.385 598.759L121.725 281.503L79.19 228.739L69.2479 602.089L118.916 713.997L150.317 676.174ZM186.975 708.743L412.55 827.999H344.948L154.26 745.76L186.975 708.743Z" fill="black" fill-opacity="0.2"/>
<path d="M280.385 342.096H412.55V705.781V827.999L186.975 708.743L260.933 604.538L323.266 616.971L402.234 523.74L357.304 419.196L202.859 405.703L150.367 470.569L192.308 576.251L150.317 676.174L112.385 598.759L121.725 281.503L152.1 308.431L280.385 342.096Z" fill="black"/>
<path d="M280.385 342.096H412.55V705.781V827.999L186.975 708.743L260.933 604.538L323.266 616.971L402.234 523.74L357.304 419.196L202.859 405.703L150.367 470.569L192.308 576.251L150.317 676.174L112.385 598.759L121.725 281.503L152.1 308.431L280.385 342.096Z" fill="#D4D4D4"/>
<path d="M198.829 271.279L139.373 213.239L143.06 202.063L203.601 259.111L313.868 291.444L412.55 281.503V308.431L314.585 304.096L198.829 271.279Z" fill="black"/>
<path d="M198.829 271.279L139.373 213.239L143.06 202.063L203.601 259.111L313.868 291.444L412.55 281.503V308.431L314.585 304.096L198.829 271.279Z" fill="black" fill-opacity="0.2"/>
<path d="M228.977 453.609L331.852 465.636L354.65 523.782L313.407 566.903L218.479 551.1L193.044 494.065L228.977 453.609Z" fill="black"/>
<path d="M228.977 453.609L331.852 465.636L354.65 523.782L313.407 566.903L218.479 551.1L193.044 494.065L228.977 453.609Z" fill="black" fill-opacity="0.2"/>
<path fill-rule="evenodd" clip-rule="evenodd" d="M202.859 405.703L357.304 419.196L402.234 523.74L323.266 616.971L260.933 604.538L198.6 592.104L192.308 576.251L150.367 470.569L202.859 405.703ZM331.852 465.636L228.977 453.609L193.044 494.065L218.479 551.1L313.407 566.903L354.65 523.782L331.852 465.636Z" fill="black" fill-opacity="0.2"/>
<path fill-rule="evenodd" clip-rule="evenodd" d="M202.859 405.703L357.304 419.196L402.234 523.74L323.266 616.971L260.933 604.538L198.6 592.104L192.308 576.251L150.367 470.569L202.859 405.703ZM331.852 465.636L228.977 453.609L193.044 494.065L218.479 551.1L313.407 566.903L354.65 523.782L331.852 465.636Z" fill="#22C55E"/>
<path d="M198.6 592.104L260.933 604.538L186.975 708.743L150.317 676.174L192.308 576.251L198.6 592.104Z" fill="black" fill-opacity="0.2"/>
<path d="M198.6 592.104L260.933 604.538L186.975 708.743L150.317 676.174L192.308 576.251L198.6 592.104Z" fill="#22C55E"/>
<path d="M109.191 763.747L71.68 763.278L118.916 713.997L154.26 745.76L109.191 763.747Z" fill="black" fill-opacity="0.2"/>
<path d="M109.191 763.747L71.68 763.278L118.916 713.997L154.26 745.76L109.191 763.747Z" fill="#22C55E"/>
<path d="M118.916 713.997L150.317 676.174L186.975 708.743L154.26 745.76L118.916 713.997Z" fill="black" fill-opacity="0.2"/>
<path d="M118.916 713.997L150.317 676.174L186.975 708.743L154.26 745.76L118.916 713.997Z" fill="#22C55E"/>
</svg>
