<svg width="67" height="67" viewBox="0 0 67 67" fill="none" xmlns="http://www.w3.org/2000/svg">
<g clip-path="url(#clip0_828_243)">
<mask id="mask0_828_243" style="mask-type:luminance" maskUnits="userSpaceOnUse" x="0" y="0" width="67" height="67">
<path d="M0 0H67V67H0V0Z" fill="white"/>
</mask>
<g mask="url(#mask0_828_243)">
<path d="M65.406 9.79622e-06H1.59125C1.38205 9.47427e-06 1.1749 0.0412607 0.981662 0.121403C0.78842 0.201545 0.612878 0.319006 0.465081 0.467063C0.317283 0.61512 0.20013 0.790868 0.120327 0.984249C0.0405235 1.17763 -0.000364566 1.38485 2.45336e-06 1.59405V65.4088C-0.000365301 65.6182 0.0406148 65.8256 0.120593 66.0192C0.20057 66.2128 0.317973 66.3886 0.466066 66.5367C0.61416 66.6848 0.790032 66.8022 0.983596 66.8822C1.17716 66.9622 1.38461 67.0032 1.59404 67.0028H65.4087C65.6182 67.0032 65.8256 66.9622 66.0192 66.8822C66.2128 66.8022 66.3886 66.6848 66.5367 66.5367C66.6848 66.3886 66.8022 66.2128 66.8822 66.0192C66.9622 65.8256 67.0032 65.6182 67.0028 65.4088V1.59126C67.0028 1.38182 66.9614 1.17445 66.8811 0.981022C66.8008 0.787598 66.6831 0.611932 66.5347 0.464098C66.3864 0.316263 66.2103 0.199169 66.0166 0.11953C65.8229 0.0398915 65.6154 -0.000725069 65.406 9.79622e-06ZM39.8818 35.8059H31.906V60.6183H25.5242V35.8059H17.5484V30.3091H39.8818V35.8059ZM41.6684 59.2001V52.5699C41.6684 52.5699 45.292 55.3001 49.6386 55.3001C53.9852 55.3001 53.8177 52.4582 53.8177 52.0674C53.8177 47.9441 41.5009 47.9441 41.5009 38.8042C41.5009 26.3757 59.4485 31.2806 59.4485 31.2806L59.2252 37.1878C59.2252 37.1878 56.2158 35.1806 52.8155 35.1806C49.4153 35.1806 48.1897 36.7998 48.1897 38.525C48.1897 42.9833 60.6182 42.5394 60.6182 51.5118C60.6182 65.3306 41.6684 59.2029 41.6684 59.2029" fill="black"/>
</g>
</g>
<defs>
<clipPath id="clip0_828_243">
<rect width="67" height="67" fill="white"/>
</clipPath>
</defs>
</svg>
